<?xml version="1.0" encoding="UTF-8" standalone="no"?>
<!DOCTYPE svg PUBLIC "-//W3C//DTD SVG 1.1//EN"
 "http://www.w3.org/Graphics/SVG/1.1/DTD/svg11.dtd">
<!-- Generated by graphviz version 2.44.0 (20200408.0750)
 -->
<!-- Pages: 1 -->
<svg width="1750pt" height="548pt"
 viewBox="0.00 0.00 1750.00 548.00" xmlns="http://www.w3.org/2000/svg" xmlns:xlink="http://www.w3.org/1999/xlink">
<g id="graph0" class="graph" transform="scale(1 1) rotate(0) translate(4 544)">
<polygon fill="white" stroke="transparent" points="-4,4 -4,-544 1746,-544 1746,4 -4,4"/>
<!-- [root] local.name&#45;env -->
<g id="node1" class="node">
<title>[root] local.name&#45;env</title>
<polygon fill="none" stroke="black" points="1465.5,-396 1370.5,-396 1370.5,-360 1471.5,-360 1471.5,-390 1465.5,-396"/>
<polyline fill="none" stroke="black" points="1465.5,-396 1465.5,-390 "/>
<polyline fill="none" stroke="black" points="1471.5,-390 1465.5,-390 "/>
<text text-anchor="middle" x="1421" y="-374.3" font-family="Times,serif" font-size="14.00">local.name&#45;env</text>
</g>
<!-- [root] var.env -->
<g id="node16" class="node">
<title>[root] var.env</title>
<polygon fill="none" stroke="black" points="1363,-36 1313,-36 1313,0 1369,0 1369,-30 1363,-36"/>
<polyline fill="none" stroke="black" points="1363,-36 1363,-30 "/>
<polyline fill="none" stroke="black" points="1369,-30 1363,-30 "/>
<text text-anchor="middle" x="1341" y="-14.3" font-family="Times,serif" font-size="14.00">var.env</text>
</g>
<!-- [root] local.name&#45;env&#45;&gt;[root] var.env -->
<g id="edge1" class="edge">
<title>[root] local.name&#45;env&#45;&gt;[root] var.env</title>
<path fill="none" stroke="black" d="M1415.33,-359.73C1407.15,-333.21 1393,-280.73 1393,-235 1393,-235 1393,-235 1393,-161 1393,-118.49 1372.2,-72.95 1356.91,-45.22"/>
<polygon fill="black" stroke="black" points="1359.76,-43.15 1351.77,-36.19 1353.67,-46.61 1359.76,-43.15"/>
</g>
<!-- [root] var.name -->
<g id="node20" class="node">
<title>[root] var.name</title>
<polygon fill="none" stroke="black" points="1453.5,-36 1392.5,-36 1392.5,0 1459.5,0 1459.5,-30 1453.5,-36"/>
<polyline fill="none" stroke="black" points="1453.5,-36 1453.5,-30 "/>
<polyline fill="none" stroke="black" points="1459.5,-30 1453.5,-30 "/>
<text text-anchor="middle" x="1426" y="-14.3" font-family="Times,serif" font-size="14.00">var.name</text>
</g>
<!-- [root] local.name&#45;env&#45;&gt;[root] var.name -->
<g id="edge2" class="edge">
<title>[root] local.name&#45;env&#45;&gt;[root] var.name</title>
<path fill="none" stroke="black" d="M1422.98,-359.98C1425.89,-333.36 1431,-280.23 1431,-235 1431,-235 1431,-235 1431,-161 1431,-120.97 1428.99,-74.63 1427.52,-46.07"/>
<polygon fill="black" stroke="black" points="1431.01,-45.84 1426.99,-36.04 1424.02,-46.21 1431.01,-45.84"/>
</g>
<!-- [root] local.snet -->
<g id="node2" class="node">
<title>[root] local.snet</title>
<polygon fill="none" stroke="black" points="1359,-180 1297,-180 1297,-144 1365,-144 1365,-174 1359,-180"/>
<polyline fill="none" stroke="black" points="1359,-180 1359,-174 "/>
<polyline fill="none" stroke="black" points="1365,-174 1359,-174 "/>
<text text-anchor="middle" x="1331" y="-158.3" font-family="Times,serif" font-size="14.00">local.snet</text>
</g>
<!-- [root] local.snet&#45;&gt;[root] var.env -->
<g id="edge3" class="edge">
<title>[root] local.snet&#45;&gt;[root] var.env</title>
<path fill="none" stroke="black" d="M1332.21,-143.87C1333.91,-119.67 1337.04,-75.21 1339.07,-46.39"/>
<polygon fill="black" stroke="black" points="1342.58,-46.41 1339.79,-36.19 1335.6,-45.92 1342.58,-46.41"/>
</g>
<!-- [root] module.app&#45;web.azurerm_app_service.this_appservice -->
<g id="node3" class="node">
<title>[root] module.app&#45;web.azurerm_app_service.this_appservice</title>
<polygon fill="none" stroke="black" points="603,-396 287,-396 287,-360 603,-360 603,-396"/>
<text text-anchor="middle" x="445" y="-374.3" font-family="Times,serif" font-size="14.00">module.app&#45;web.azurerm_app_service.this_appservice</text>
</g>
<!-- [root] module.app&#45;web.azurerm_app_service_plan.this_appservice_plan -->
<g id="node4" class="node">
<title>[root] module.app&#45;web.azurerm_app_service_plan.this_appservice_plan</title>
<polygon fill="none" stroke="black" points="618,-324 242,-324 242,-288 618,-288 618,-324"/>
<text text-anchor="middle" x="430" y="-302.3" font-family="Times,serif" font-size="14.00">module.app&#45;web.azurerm_app_service_plan.this_appservice_plan</text>
</g>
<!-- [root] module.app&#45;web.azurerm_app_service.this_appservice&#45;&gt;[root] module.app&#45;web.azurerm_app_service_plan.this_appservice_plan -->
<g id="edge12" class="edge">
<title>[root] module.app&#45;web.azurerm_app_service.this_appservice&#45;&gt;[root] module.app&#45;web.azurerm_app_service_plan.this_appservice_plan</title>
<path fill="none" stroke="black" d="M441.29,-359.7C439.64,-351.98 437.65,-342.71 435.81,-334.11"/>
<polygon fill="black" stroke="black" points="439.18,-333.15 433.67,-324.1 432.34,-334.62 439.18,-333.15"/>
</g>
<!-- [root] module.app&#45;web.var.keyvault&#45;ad&#45;auth -->
<g id="node11" class="node">
<title>[root] module.app&#45;web.var.keyvault&#45;ad&#45;auth</title>
<polygon fill="none" stroke="black" points="218,-324 0,-324 0,-288 224,-288 224,-318 218,-324"/>
<polyline fill="none" stroke="black" points="218,-324 218,-318 "/>
<polyline fill="none" stroke="black" points="224,-318 218,-318 "/>
<text text-anchor="middle" x="112" y="-302.3" font-family="Times,serif" font-size="14.00">module.app&#45;web.var.keyvault&#45;ad&#45;auth</text>
</g>
<!-- [root] module.app&#45;web.azurerm_app_service.this_appservice&#45;&gt;[root] module.app&#45;web.var.keyvault&#45;ad&#45;auth -->
<g id="edge13" class="edge">
<title>[root] module.app&#45;web.azurerm_app_service.this_appservice&#45;&gt;[root] module.app&#45;web.var.keyvault&#45;ad&#45;auth</title>
<path fill="none" stroke="black" d="M363.96,-359.97C315.32,-349.74 253.33,-336.71 203.01,-326.13"/>
<polygon fill="black" stroke="black" points="203.62,-322.68 193.11,-324.05 202.18,-329.53 203.62,-322.68"/>
</g>
<!-- [root] module.app&#45;web.data.azurerm_resource_group.this_resource_group -->
<g id="node6" class="node">
<title>[root] module.app&#45;web.data.azurerm_resource_group.this_resource_group</title>
<polygon fill="none" stroke="black" points="624,-252 236,-252 236,-216 624,-216 624,-252"/>
<text text-anchor="middle" x="430" y="-230.3" font-family="Times,serif" font-size="14.00">module.app&#45;web.data.azurerm_resource_group.this_resource_group</text>
</g>
<!-- [root] module.app&#45;web.azurerm_app_service_plan.this_appservice_plan&#45;&gt;[root] module.app&#45;web.data.azurerm_resource_group.this_resource_group -->
<g id="edge14" class="edge">
<title>[root] module.app&#45;web.azurerm_app_service_plan.this_appservice_plan&#45;&gt;[root] module.app&#45;web.data.azurerm_resource_group.this_resource_group</title>
<path fill="none" stroke="black" d="M430,-287.7C430,-279.98 430,-270.71 430,-262.11"/>
<polygon fill="black" stroke="black" points="433.5,-262.1 430,-252.1 426.5,-262.1 433.5,-262.1"/>
</g>
<!-- [root] module.app&#45;web.azurerm_frontdoor.frontdoor -->
<g id="node5" class="node">
<title>[root] module.app&#45;web.azurerm_frontdoor.frontdoor</title>
<polygon fill="none" stroke="black" points="912.5,-252 643.5,-252 643.5,-216 912.5,-216 912.5,-252"/>
<text text-anchor="middle" x="778" y="-230.3" font-family="Times,serif" font-size="14.00">module.app&#45;web.azurerm_frontdoor.frontdoor</text>
</g>
<!-- [root] module.app&#45;web.local.name&#45;env -->
<g id="node7" class="node">
<title>[root] module.app&#45;web.local.name&#45;env</title>
<polygon fill="none" stroke="black" points="1149,-180 959,-180 959,-144 1155,-144 1155,-174 1149,-180"/>
<polyline fill="none" stroke="black" points="1149,-180 1149,-174 "/>
<polyline fill="none" stroke="black" points="1155,-174 1149,-174 "/>
<text text-anchor="middle" x="1057" y="-158.3" font-family="Times,serif" font-size="14.00">module.app&#45;web.local.name&#45;env</text>
</g>
<!-- [root] module.app&#45;web.azurerm_frontdoor.frontdoor&#45;&gt;[root] module.app&#45;web.local.name&#45;env -->
<g id="edge15" class="edge">
<title>[root] module.app&#45;web.azurerm_frontdoor.frontdoor&#45;&gt;[root] module.app&#45;web.local.name&#45;env</title>
<path fill="none" stroke="black" d="M845.89,-215.97C886.06,-205.89 937.1,-193.08 978.93,-182.59"/>
<polygon fill="black" stroke="black" points="979.95,-185.94 988.8,-180.11 978.25,-179.15 979.95,-185.94"/>
</g>
<!-- [root] provider.azurerm -->
<g id="node15" class="node">
<title>[root] provider.azurerm</title>
<polygon fill="none" stroke="black" points="604,-180 502.79,-162 604,-144 705.21,-162 604,-180"/>
<text text-anchor="middle" x="604" y="-158.3" font-family="Times,serif" font-size="14.00">provider.azurerm</text>
</g>
<!-- [root] module.app&#45;web.azurerm_frontdoor.frontdoor&#45;&gt;[root] provider.azurerm -->
<g id="edge16" class="edge">
<title>[root] module.app&#45;web.azurerm_frontdoor.frontdoor&#45;&gt;[root] provider.azurerm</title>
<path fill="none" stroke="black" d="M735.43,-215.88C707.09,-204.47 670.13,-189.6 642.63,-178.54"/>
<polygon fill="black" stroke="black" points="643.91,-175.28 633.33,-174.8 641.3,-181.78 643.91,-175.28"/>
</g>
<!-- [root] module.app&#45;web.data.azurerm_resource_group.this_resource_group&#45;&gt;[root] provider.azurerm -->
<g id="edge17" class="edge">
<title>[root] module.app&#45;web.data.azurerm_resource_group.this_resource_group&#45;&gt;[root] provider.azurerm</title>
<path fill="none" stroke="black" d="M472.57,-215.88C500.91,-204.47 537.87,-189.6 565.37,-178.54"/>
<polygon fill="black" stroke="black" points="566.7,-181.78 574.67,-174.8 564.09,-175.28 566.7,-181.78"/>
</g>
<!-- [root] module.app&#45;web.var.env -->
<g id="node9" class="node">
<title>[root] module.app&#45;web.var.env</title>
<polygon fill="none" stroke="black" points="1127,-108 981,-108 981,-72 1133,-72 1133,-102 1127,-108"/>
<polyline fill="none" stroke="black" points="1127,-108 1127,-102 "/>
<polyline fill="none" stroke="black" points="1133,-102 1127,-102 "/>
<text text-anchor="middle" x="1057" y="-86.3" font-family="Times,serif" font-size="14.00">module.app&#45;web.var.env</text>
</g>
<!-- [root] module.app&#45;web.local.name&#45;env&#45;&gt;[root] module.app&#45;web.var.env -->
<g id="edge18" class="edge">
<title>[root] module.app&#45;web.local.name&#45;env&#45;&gt;[root] module.app&#45;web.var.env</title>
<path fill="none" stroke="black" d="M1057,-143.7C1057,-135.98 1057,-126.71 1057,-118.11"/>
<polygon fill="black" stroke="black" points="1060.5,-118.1 1057,-108.1 1053.5,-118.1 1060.5,-118.1"/>
</g>
<!-- [root] module.app&#45;web.var.name -->
<g id="node13" class="node">
<title>[root] module.app&#45;web.var.name</title>
<polygon fill="none" stroke="black" points="1307,-108 1151,-108 1151,-72 1313,-72 1313,-102 1307,-108"/>
<polyline fill="none" stroke="black" points="1307,-108 1307,-102 "/>
<polyline fill="none" stroke="black" points="1313,-102 1307,-102 "/>
<text text-anchor="middle" x="1232" y="-86.3" font-family="Times,serif" font-size="14.00">module.app&#45;web.var.name</text>
</g>
<!-- [root] module.app&#45;web.local.name&#45;env&#45;&gt;[root] module.app&#45;web.var.name -->
<g id="edge19" class="edge">
<title>[root] module.app&#45;web.local.name&#45;env&#45;&gt;[root] module.app&#45;web.var.name</title>
<path fill="none" stroke="black" d="M1099.81,-143.88C1123.95,-134.22 1154.28,-122.09 1179.81,-111.88"/>
<polygon fill="black" stroke="black" points="1181.34,-115.03 1189.33,-108.07 1178.74,-108.53 1181.34,-115.03"/>
</g>
<!-- [root] module.app&#45;web.output.host_name -->
<g id="node8" class="node">
<title>[root] module.app&#45;web.output.host_name</title>
<polygon fill="none" stroke="black" points="877.5,-324 674.5,-324 674.5,-288 883.5,-288 883.5,-318 877.5,-324"/>
<polyline fill="none" stroke="black" points="877.5,-324 877.5,-318 "/>
<polyline fill="none" stroke="black" points="883.5,-318 877.5,-318 "/>
<text text-anchor="middle" x="779" y="-302.3" font-family="Times,serif" font-size="14.00">module.app&#45;web.output.host_name</text>
</g>
<!-- [root] module.app&#45;web.output.host_name&#45;&gt;[root] module.app&#45;web.azurerm_frontdoor.frontdoor -->
<g id="edge20" class="edge">
<title>[root] module.app&#45;web.output.host_name&#45;&gt;[root] module.app&#45;web.azurerm_frontdoor.frontdoor</title>
<path fill="none" stroke="black" d="M778.75,-287.7C778.64,-279.98 778.51,-270.71 778.39,-262.11"/>
<polygon fill="black" stroke="black" points="781.89,-262.05 778.24,-252.1 774.89,-262.15 781.89,-262.05"/>
</g>
<!-- [root] module.app&#45;web.var.env&#45;&gt;[root] var.env -->
<g id="edge21" class="edge">
<title>[root] module.app&#45;web.var.env&#45;&gt;[root] var.env</title>
<path fill="none" stroke="black" d="M1126.11,-71.97C1181.71,-58.26 1257.76,-39.52 1302.89,-28.39"/>
<polygon fill="black" stroke="black" points="1303.98,-31.73 1312.85,-25.94 1302.3,-24.93 1303.98,-31.73"/>
</g>
<!-- [root] module.app&#45;web.var.front&#45;door&#45;backend&#45;ip -->
<g id="node10" class="node">
<title>[root] module.app&#45;web.var.front&#45;door&#45;backend&#45;ip</title>
<polygon fill="none" stroke="black" points="1736,-396 1490,-396 1490,-360 1742,-360 1742,-390 1736,-396"/>
<polyline fill="none" stroke="black" points="1736,-396 1736,-390 "/>
<polyline fill="none" stroke="black" points="1742,-390 1736,-390 "/>
<text text-anchor="middle" x="1616" y="-374.3" font-family="Times,serif" font-size="14.00">module.app&#45;web.var.front&#45;door&#45;backend&#45;ip</text>
</g>
<!-- [root] var.keyvault&#45;ad&#45;auth -->
<g id="node18" class="node">
<title>[root] var.keyvault&#45;ad&#45;auth</title>
<polygon fill="none" stroke="black" points="170,-252 48,-252 48,-216 176,-216 176,-246 170,-252"/>
<polyline fill="none" stroke="black" points="170,-252 170,-246 "/>
<polyline fill="none" stroke="black" points="176,-246 170,-246 "/>
<text text-anchor="middle" x="112" y="-230.3" font-family="Times,serif" font-size="14.00">var.keyvault&#45;ad&#45;auth</text>
</g>
<!-- [root] module.app&#45;web.var.keyvault&#45;ad&#45;auth&#45;&gt;[root] var.keyvault&#45;ad&#45;auth -->
<g id="edge22" class="edge">
<title>[root] module.app&#45;web.var.keyvault&#45;ad&#45;auth&#45;&gt;[root] var.keyvault&#45;ad&#45;auth</title>
<path fill="none" stroke="black" d="M112,-287.7C112,-279.98 112,-270.71 112,-262.11"/>
<polygon fill="black" stroke="black" points="115.5,-262.1 112,-252.1 108.5,-262.1 115.5,-262.1"/>
</g>
<!-- [root] module.app&#45;web.var.location -->
<g id="node12" class="node">
<title>[root] module.app&#45;web.var.location</title>
<polygon fill="none" stroke="black" points="1034,-396 864,-396 864,-360 1040,-360 1040,-390 1034,-396"/>
<polyline fill="none" stroke="black" points="1034,-396 1034,-390 "/>
<polyline fill="none" stroke="black" points="1040,-390 1034,-390 "/>
<text text-anchor="middle" x="952" y="-374.3" font-family="Times,serif" font-size="14.00">module.app&#45;web.var.location</text>
</g>
<!-- [root] module.app&#45;web.var.name&#45;&gt;[root] var.name -->
<g id="edge23" class="edge">
<title>[root] module.app&#45;web.var.name&#45;&gt;[root] var.name</title>
<path fill="none" stroke="black" d="M1279.46,-71.88C1311.04,-60.48 1352.2,-45.63 1382.85,-34.57"/>
<polygon fill="black" stroke="black" points="1384.19,-37.81 1392.41,-31.12 1381.81,-31.22 1384.19,-37.81"/>
</g>
<!-- [root] output.front&#45;door&#45;host&#45;name -->
<g id="node14" class="node">
<title>[root] output.front&#45;door&#45;host&#45;name</title>
<polygon fill="none" stroke="black" points="840,-396 674,-396 674,-360 846,-360 846,-390 840,-396"/>
<polyline fill="none" stroke="black" points="840,-396 840,-390 "/>
<polyline fill="none" stroke="black" points="846,-390 840,-390 "/>
<text text-anchor="middle" x="760" y="-374.3" font-family="Times,serif" font-size="14.00">output.front&#45;door&#45;host&#45;name</text>
</g>
<!-- [root] output.front&#45;door&#45;host&#45;name&#45;&gt;[root] module.app&#45;web.output.host_name -->
<g id="edge24" class="edge">
<title>[root] output.front&#45;door&#45;host&#45;name&#45;&gt;[root] module.app&#45;web.output.host_name</title>
<path fill="none" stroke="black" d="M764.7,-359.7C766.81,-351.9 769.36,-342.51 771.72,-333.83"/>
<polygon fill="black" stroke="black" points="775.12,-334.67 774.36,-324.1 768.36,-332.84 775.12,-334.67"/>
</g>
<!-- [root] var.front&#45;door&#45;backend&#45;ip -->
<g id="node17" class="node">
<title>[root] var.front&#45;door&#45;backend&#45;ip</title>
<polygon fill="none" stroke="black" points="1209.5,-396 1058.5,-396 1058.5,-360 1215.5,-360 1215.5,-390 1209.5,-396"/>
<polyline fill="none" stroke="black" points="1209.5,-396 1209.5,-390 "/>
<polyline fill="none" stroke="black" points="1215.5,-390 1209.5,-390 "/>
<text text-anchor="middle" x="1137" y="-374.3" font-family="Times,serif" font-size="14.00">var.front&#45;door&#45;backend&#45;ip</text>
</g>
<!-- [root] var.location -->
<g id="node19" class="node">
<title>[root] var.location</title>
<polygon fill="none" stroke="black" points="1308,-396 1234,-396 1234,-360 1314,-360 1314,-390 1308,-396"/>
<polyline fill="none" stroke="black" points="1308,-396 1308,-390 "/>
<polyline fill="none" stroke="black" points="1314,-390 1308,-390 "/>
<text text-anchor="middle" x="1274" y="-374.3" font-family="Times,serif" font-size="14.00">var.location</text>
</g>
<!-- [root] meta.count&#45;boundary (EachMode fixup) -->
<g id="node21" class="node">
<title>[root] meta.count&#45;boundary (EachMode fixup)</title>
<ellipse fill="none" stroke="black" cx="1137" cy="-450" rx="176.27" ry="18"/>
<text text-anchor="middle" x="1137" y="-446.3" font-family="Times,serif" font-size="14.00">[root] meta.count&#45;boundary (EachMode fixup)</text>
</g>
<!-- [root] meta.count&#45;boundary (EachMode fixup)&#45;&gt;[root] local.name&#45;env -->
<g id="edge4" class="edge">
<title>[root] meta.count&#45;boundary (EachMode fixup)&#45;&gt;[root] local.name&#45;env</title>
<path fill="none" stroke="black" d="M1203.2,-433.31C1246.69,-422.93 1304.79,-408.89 1356,-396 1357.45,-395.64 1358.92,-395.26 1360.4,-394.89"/>
<polygon fill="black" stroke="black" points="1361.46,-398.23 1370.28,-392.36 1359.73,-391.45 1361.46,-398.23"/>
</g>
<!-- [root] meta.count&#45;boundary (EachMode fixup)&#45;&gt;[root] local.snet -->
<g id="edge5" class="edge">
<title>[root] meta.count&#45;boundary (EachMode fixup)&#45;&gt;[root] local.snet</title>
<path fill="none" stroke="black" d="M1224.13,-434.34C1266.13,-425.34 1310.17,-412.4 1323,-396 1370.18,-335.68 1351.99,-237.26 1339.29,-190"/>
<polygon fill="black" stroke="black" points="1342.61,-188.87 1336.53,-180.19 1335.87,-190.77 1342.61,-188.87"/>
</g>
<!-- [root] meta.count&#45;boundary (EachMode fixup)&#45;&gt;[root] module.app&#45;web.azurerm_app_service.this_appservice -->
<g id="edge6" class="edge">
<title>[root] meta.count&#45;boundary (EachMode fixup)&#45;&gt;[root] module.app&#45;web.azurerm_app_service.this_appservice</title>
<path fill="none" stroke="black" d="M1016.46,-436.81C904.86,-425.52 737.84,-408.62 613.14,-396.01"/>
<polygon fill="black" stroke="black" points="613.41,-392.52 603.11,-394.99 612.71,-399.48 613.41,-392.52"/>
</g>
<!-- [root] meta.count&#45;boundary (EachMode fixup)&#45;&gt;[root] module.app&#45;web.var.front&#45;door&#45;backend&#45;ip -->
<g id="edge7" class="edge">
<title>[root] meta.count&#45;boundary (EachMode fixup)&#45;&gt;[root] module.app&#45;web.var.front&#45;door&#45;backend&#45;ip</title>
<path fill="none" stroke="black" d="M1233.36,-434.92C1306.98,-424.16 1409.1,-409.24 1489.32,-397.51"/>
<polygon fill="black" stroke="black" points="1490.11,-400.94 1499.49,-396.03 1489.09,-394.01 1490.11,-400.94"/>
</g>
<!-- [root] meta.count&#45;boundary (EachMode fixup)&#45;&gt;[root] module.app&#45;web.var.location -->
<g id="edge8" class="edge">
<title>[root] meta.count&#45;boundary (EachMode fixup)&#45;&gt;[root] module.app&#45;web.var.location</title>
<path fill="none" stroke="black" d="M1093.16,-432.41C1067.26,-422.61 1034.24,-410.12 1006.65,-399.68"/>
<polygon fill="black" stroke="black" points="1007.73,-396.34 997.14,-396.08 1005.25,-402.89 1007.73,-396.34"/>
</g>
<!-- [root] meta.count&#45;boundary (EachMode fixup)&#45;&gt;[root] output.front&#45;door&#45;host&#45;name -->
<g id="edge9" class="edge">
<title>[root] meta.count&#45;boundary (EachMode fixup)&#45;&gt;[root] output.front&#45;door&#45;host&#45;name</title>
<path fill="none" stroke="black" d="M1056.12,-433.98C997.61,-423.12 918.29,-408.39 856.47,-396.91"/>
<polygon fill="black" stroke="black" points="856.79,-393.41 846.32,-395.03 855.51,-400.29 856.79,-393.41"/>
</g>
<!-- [root] meta.count&#45;boundary (EachMode fixup)&#45;&gt;[root] var.front&#45;door&#45;backend&#45;ip -->
<g id="edge10" class="edge">
<title>[root] meta.count&#45;boundary (EachMode fixup)&#45;&gt;[root] var.front&#45;door&#45;backend&#45;ip</title>
<path fill="none" stroke="black" d="M1137,-431.7C1137,-423.98 1137,-414.71 1137,-406.11"/>
<polygon fill="black" stroke="black" points="1140.5,-406.1 1137,-396.1 1133.5,-406.1 1140.5,-406.1"/>
</g>
<!-- [root] meta.count&#45;boundary (EachMode fixup)&#45;&gt;[root] var.location -->
<g id="edge11" class="edge">
<title>[root] meta.count&#45;boundary (EachMode fixup)&#45;&gt;[root] var.location</title>
<path fill="none" stroke="black" d="M1169.81,-432.23C1188.27,-422.81 1211.51,-410.93 1231.36,-400.79"/>
<polygon fill="black" stroke="black" points="1233.19,-403.78 1240.5,-396.12 1230,-397.55 1233.19,-403.78"/>
</g>
<!-- [root] provider.azurerm (close) -->
<g id="node22" class="node">
<title>[root] provider.azurerm (close)</title>
<ellipse fill="none" stroke="black" cx="646" cy="-450" rx="120.48" ry="18"/>
<text text-anchor="middle" x="646" y="-446.3" font-family="Times,serif" font-size="14.00">[root] provider.azurerm (close)</text>
</g>
<!-- [root] provider.azurerm (close)&#45;&gt;[root] module.app&#45;web.azurerm_app_service.this_appservice -->
<g id="edge25" class="edge">
<title>[root] provider.azurerm (close)&#45;&gt;[root] module.app&#45;web.azurerm_app_service.this_appservice</title>
<path fill="none" stroke="black" d="M600.89,-433.29C572.17,-423.29 534.67,-410.23 503.65,-399.43"/>
<polygon fill="black" stroke="black" points="504.42,-395.99 493.82,-396 502.12,-402.6 504.42,-395.99"/>
</g>
<!-- [root] provider.azurerm (close)&#45;&gt;[root] module.app&#45;web.azurerm_frontdoor.frontdoor -->
<g id="edge26" class="edge">
<title>[root] provider.azurerm (close)&#45;&gt;[root] module.app&#45;web.azurerm_frontdoor.frontdoor</title>
<path fill="none" stroke="black" d="M643.15,-431.81C638.88,-400.11 634.39,-331.7 666,-288 675.81,-274.43 690.02,-264.21 705.03,-256.57"/>
<polygon fill="black" stroke="black" points="706.89,-259.55 714.45,-252.13 703.91,-253.22 706.89,-259.55"/>
</g>
<!-- [root] root -->
<g id="node23" class="node">
<title>[root] root</title>
<ellipse fill="none" stroke="black" cx="891" cy="-522" rx="47.39" ry="18"/>
<text text-anchor="middle" x="891" y="-518.3" font-family="Times,serif" font-size="14.00">[root] root</text>
</g>
<!-- [root] root&#45;&gt;[root] meta.count&#45;boundary (EachMode fixup) -->
<g id="edge27" class="edge">
<title>[root] root&#45;&gt;[root] meta.count&#45;boundary (EachMode fixup)</title>
<path fill="none" stroke="black" d="M927.83,-510.52C965.42,-499.82 1024.58,-482.99 1070.4,-469.95"/>
<polygon fill="black" stroke="black" points="1071.6,-473.25 1080.26,-467.14 1069.69,-466.52 1071.6,-473.25"/>
</g>
<!-- [root] root&#45;&gt;[root] provider.azurerm (close) -->
<g id="edge28" class="edge">
<title>[root] root&#45;&gt;[root] provider.azurerm (close)</title>
<path fill="none" stroke="black" d="M854.32,-510.52C816.02,-499.58 755.21,-482.2 709.16,-469.05"/>
<polygon fill="black" stroke="black" points="709.86,-465.6 699.28,-466.22 707.93,-472.34 709.86,-465.6"/>
</g>
</g>
</svg>
